<?xml version="1.0" encoding="UTF-8"?><svg id="a" xmlns="http://www.w3.org/2000/svg" xmlns:xlink="http://www.w3.org/1999/xlink" viewBox="0 0 195.49 239.01"><defs><linearGradient id="b" x1="0" y1="119.5" x2="195.49" y2="119.5" gradientUnits="userSpaceOnUse"><stop offset="0" stop-color="#00c0a3"/><stop offset="1" stop-color="#a3bfd6"/></linearGradient></defs><path d="M195.01,54.84c.26-8.31-4.44-12.14-12.6-11.34-32.74,3.21-57.24-10.23-75.52-36.72-5.89-8.54-12.62-9.37-18.93-.41C69.57,32.47,45.53,46.91,12.59,43.48,3.38,42.53-.17,47.01,0,55.91c.27,14.1,.07,28.21,.06,42.32-.01,8.38-.02,16.75-.01,25.13,.03,53.37,31.6,96.54,82.82,113.18,7.19,2.34,14.41,3.24,22.09,1.73,39.5-7.76,80.64-49.07,87.53-88.47,5.51-31.51,1.53-63.31,2.51-94.96Zm-17.15,16.81c-.48,9.68-.12,19.4-.12,29.11-.13,0-.26,0-.4,0,0,11.02,.89,22.13-.16,33.05-4.17,43.68-30.97,69.38-69.56,85.28-6.85,2.82-13.7,2.46-20.69,.1-43.06-14.55-69.34-50.75-69.43-95.87-.03-17.65,.17-35.29-.08-52.94-.09-6.43,1.55-9.7,8.83-9.64,25.88,.2,47.15-10.69,64.17-29.38,6.24-6.85,8.67-4.78,13.94,.69,17.15,17.79,37.84,28.95,63.22,28.63,8.49-.11,10.64,3.29,10.26,10.97Zm-52.67,95.19c.13,3.19-1.09,5.86-4.99,7.03-.92,.28-1.87,.47-2.83,.63-4.11,.71-8.22,1.39-9.87,1.66h0c-22.47,.23-36.33-12.26-36.88-32.47-.66-24.1-.12-48.24-.3-72.36-.04-5.74,2.44-9.91,7.97-8.05,5.15,1.72,7.85,2.28,8.18,7.95,1.01,17.46,1.2,17.15,18.39,17.66,5.46,.16,14.84-3.82,14.32,7.05-.47,9.92-9.34,5.64-14.47,5.8-20.85,.65-18.06-1.42-18.29,18.12-.07,5.79-.04,11.58,0,17.37,.14,22.59,8.12,29.02,30.77,24.96,2.64-.47,4.65-4.81,7.08,.74,.54,1.23,.87,2.55,.93,3.89Z" style="fill:url(#b);"/></svg>