<?xml version="1.0" encoding="UTF-8"?><svg id="a" xmlns="http://www.w3.org/2000/svg" xmlns:xlink="http://www.w3.org/1999/xlink" viewBox="0 0 3000 3000"><defs><linearGradient id="b" x1="626.26" y1="1500.2" x2="2797.04" y2="1500.2" gradientUnits="userSpaceOnUse"><stop offset="0" stop-color="#00c0a3"/><stop offset="1" stop-color="#a3bfd6"/></linearGradient><linearGradient id="c" x1="202.89" y1="1500" x2="483.85" y2="1500" xlink:href="#b"/></defs><path d="M1085.79,1459.96c-.2,22.17-.06,44.34-.07,66.5,0,22.17,.07,44.34-.06,66.5-.04,6.15,1.31,13.73-7.26,15.38-6.61,1.27-14.48,3.09-18.05-5.64-3.93-9.61-8.81-5.34-14.74-2.1-56.05,30.61-107.63,4.01-112.84-59.33-2.33-28.31-.61-56.96-.78-85.45-.07-11.68,6.44-15.05,17.13-14.87,10.6,.18,14.51,4.95,14.41,15.23-.27,27.87,.05,55.74,0,83.6-.03,19.94,6.75,36.35,25.81,44.73,19.71,8.66,36.96,1.79,52.76-10.94,9.74-7.85,13.12-17.8,12.95-30.05-.38-27.86,.06-55.74-.12-83.6-.07-11.52,1.97-19.53,16.62-19.11,14.29,.4,14.3,8.99,14.21,19.15Zm-351.3,134.98c.26,6.29-2.15,11.55-9.84,13.85-1.82,.54-3.7,.92-5.57,1.25-8.09,1.39-16.2,2.73-19.45,3.28h0c-44.29,.46-71.61-24.16-72.71-64-1.3-47.51-.23-95.08-.59-142.63-.08-11.31,4.81-19.53,15.7-15.88,10.14,3.4,15.47,4.49,16.12,15.68,1.99,34.42,2.37,33.81,36.24,34.82,10.76,.32,29.25-7.53,28.23,13.9-.93,19.55-18.41,11.12-28.53,11.44-41.1,1.28-35.59-2.79-36.06,35.72-.14,11.41-.07,22.82,0,34.23,.27,44.54,16,57.21,60.66,49.2,5.2-.93,9.17-9.49,13.96,1.46,1.06,2.43,1.72,5.03,1.83,7.68Zm1094.66-204.26c-19.75-.3-15.68,13.28-16.4,25.09-.27,4.5-.3,9.01-.03,13.51,.65,10.85-1.78,14.94-13.33,12.01-19.81-5.03-39.91-6.4-59.86,1.26-40.25,15.46-59.38,59-47.68,109.61,12.75,55.19,64.03,77.1,112.6,47.97,4.94-2.96,9.33-7.93,12.79,1.37,3.61,9.72,11.91,8.4,19.26,6.92,9.68-1.96,7.5-10.49,7.54-17.07,.2-30.4,.09-60.8,.09-91.2,0-29.13,.07-58.26-.03-87.4-.04-10.5,2.63-21.81-14.95-22.08Zm-33.03,187.17c-26.67,19.5-59.92,11.1-70.79-20.05-6.87-19.7-6.77-40.1-1.68-59.82,8.39-32.49,53.3-47.75,82.68-29.42,6.04,3.77,6.29,8.97,6.37,14.63,.14,11.38,.04,22.76,.04,36.16-1.4,19.22,5.99,41.98-16.62,58.51Zm1000.48-19.97c-2.97,25.95-20.1,44.12-48.7,51.65-47.56,12.53-94.07-2.52-112.28-36.87-3.86-7.28-5.96-11.82-2.47-23.36,3.32-10.97,22.29-4.06,28.02,10.07,11.49,28.35,59.91,39.18,91.83,18.98,13.02-8.24,13.57-21.92,12.04-35.68-1.68-15.13-11.3-23.38-24.79-28.09-13.47-4.71-27.49-4.03-41.42-3.87-8.48,.1-14.86-1.19-14.78-12.14,.07-10.66,6.06-12.55,14.72-12.47,13.31,.13,26.6,.3,39.41-4.59,14.17-5.4,21.01-16.41,22.04-30.44,1.05-14.37-5.52-25.35-18.84-32.38-29.14-15.37-62.03-6.81-79.51,21.16-2,3.2-3.5,7.07-6.28,9.35-7.07,5.77-15.9,6.02-23.16,1.78-7.64-4.47-1.79-11.69,.2-16.97,15.76-41.71,78.68-60.96,124.2-38.23,23.35,11.66,34.57,30.17,33.33,56.68-.99,21.15-12.35,34.62-30.62,44.17,0,0,0,0,0,0,27.87,14.59,40.05,35.17,37.07,61.23Zm-298.21-120.21c-32.47,4.12-32.78,4.12-33.2-27.9-.15-11.64-1.75-19.24-16.4-19.06-15.29,.19-15.52,9.26-15.46,20.12,.15,27.84,.05,55.68,.04,83.52,0,18.98,0,37.96,0,56.94,0,49.83,1.32,51.41,50.55,60.47,1.25,.23,2.48,.55,3.73,.74,49.53,7.27,87.64-15.64,98.09-59.31,3.41-14.28,2.79-28.92,1.65-43.44-3.69-47.14-41.96-78.05-89-72.08Zm52.87,122.06c-11.46,27.71-55.02,39.34-80.48,22.84-6.05-3.92-5.6-9.38-5.66-14.95-.14-13.91-.04-27.82-.04-41.73-.04-6.96-.97-14.07,.15-20.84,2.44-14.7-10.14-35.43,17.43-40.32,35.82-6.36,58.57,1.39,69.19,26.69,9.51,22.67,8.64,45.99-.59,68.31Zm-1659.84-109.79c1.02,12.52-4.25,16.98-16.17,17.3-10.07,.27-20.31,.76-29.81,5.08-23.76,10.79-37.31,22.53-35.03,49.63,1.85,22.01,.19,44.31,.44,66.48,.13,11.66-.12,21.32-16.48,21.05-15.38-.25-15.34-9.47-15.31-20.27,.11-40.54-.29-81.08,.28-121.61,.14-9.57-5.59-23.14,10.85-26.14,17.52-3.2,16.15,11.31,18.76,24.67,0,0,0,0,0,0,19.05-17.18,39.29-26.52,62.99-26.69,8.43-.06,18.3-3.98,19.48,10.51Zm1292.13-41.6c-19.58,60.79-38.53,121.79-57.56,182.76-3.36,10.75-9.22,18.06-21.37,17.93-13.35-.15-20.36-7.23-23.82-20.04-11.87-43.97-24.38-87.76-36.68-131.61-1.32-4.7-2.91-9.33-5.86-18.71,0,0,0,0,0,0-13.27,46.82-25.27,89.18-37.27,131.54-2.04,7.18-4.21,14.33-6.1,21.55-2.64,10.09-11.66,17.38-22.1,17.27-11.73-.13-18.34-6.01-21.82-17.25-14.22-45.94-28.95-91.72-43.43-137.58-4.57-14.48-9.09-28.97-13.29-43.56-1.9-6.61-8.55-15.71,2.71-18.76,10.06-2.73,21.57-3.5,25.99,11.16,10.02,33.29,20.68,66.39,31.06,99.57,5.8,18.52,11.57,37.05,19.04,61,0,0,0,0,0,0,10.66-36.79,19.89-68.5,29.03-100.24,5.24-18.2,10.8-36.32,15.33-54.69,2.91-11.81,10.13-17.07,21.54-17.42,13.46-.41,18.62,8.6,21.73,19.81,12.83,46.27,25.73,92.51,38.56,138.78,.83,2.98,.54,6.45,6,8.49,0,0,0,0,0,0,8.8-27.53,17.75-54.93,26.3-82.45,7.12-22.93,13.67-46.03,20.67-68.99,2.66-8.73,5.96-15.98,17.79-16.14,13.91-.19,18.09,3.54,13.55,17.62Zm-632.63,29.82c-37.03,6.7-60.19,30.83-66.02,68.78-6.53,42.49,8.94,80.66,39.56,97.62,35.44,19.63,90.04,8.25,109.33-23.27,3.86-6.3,12.81-14.97,2.94-21.09-7.61-4.72-18.6-3.93-25.63,5.39-2.28,3.03-4.71,6-7.44,8.63-28.37,27.41-75.17,15.59-85.86-21.51-2.92-10.13-1.24-15.86,10.91-15.58,17.13,.4,34.27,.1,51.4,.1v-.12c17.02,0,34.04-.19,51.06,.07,7.76,.12,14.4-5.77,14.92-13.52,3.55-53.43-42.64-95.02-95.17-85.51Zm48.21,74.42c-11.32-.71-22.72-.14-34.08-.14-10.73,0-21.47,.12-32.2-.02-17.47-.24-19.49-3.49-12.82-20.19,7.42-18.57,27.83-31.43,48.03-30.27,19.35,1.11,38.3,15.68,44.12,33.65,3.95,12.19,.49,17.83-13.06,16.98Zm-308.28,57.55c-2.33,23.22-26.22,40.48-59.76,43.01-4.42,.33-8.89,.05-13.33,.05-26.92-.35-52.04-5.79-69.24-28.74-5.17-6.9-15.3-16.61-5.52-24.24,7.49-5.84,19.84-3.65,27.12,6.02,15.14,20.11,36.34,23.97,59.48,21.9,6.36-.57,12.99-2.46,18.66-5.35,15.21-7.74,15.75-22.29,1.33-31.42-12.83-8.12-27.63-10.39-42.06-13.69-17.36-3.96-34.74-7.93-49.24-19.15-21.19-16.39-23.02-45.13-4.11-63.07,30.86-29.26,100.97-23.18,125.37,11.27,4.75,6.71,14.31,16.38,6,22.79-7.98,6.16-20.38,4.34-28.52-6.11-16.45-21.13-38.58-24.57-63.31-19.09-10.47,2.32-19.82,5.74-20.64,18.54-.83,12.98,8.71,17.93,18.44,20.99,16.28,5.11,33.07,8.57,49.54,13.1,34.85,9.59,52.27,28.34,49.78,53.17Zm159.58,22.66c3.07,16.41-11.89,17.09-22.63,19.15-49.28,9.47-83.94-18.64-84.72-68.51-.34-21.52-.06-43.04-.05-64.56,0-24.05,.29-48.11-.12-72.16-.19-11.24,4.07-15.9,15.62-15.88,11.46,.02,15.4,4.88,16.15,15.85,2.33,34.24,2.66,33.61,36.37,34.66,10.23,.32,27.51-7.54,27.93,12.32,.42,20.07-16.99,12.8-27.23,13.08-42.76,1.17-36.59-3.58-37.12,38.27-.17,13.29-.19,26.59,.04,39.88,.56,32.7,19.5,48.06,51.63,43.33,8.09-1.19,20.89-12.83,24.14,4.58Zm865.47-153.23c-43.6-9.26-84,12.31-95.21,51.95-7.62,26.95-7.08,54.12,5.3,79.82,12.24,25.4,33.02,39.82,61.26,41.79,31.05,2.16,59.96-2.89,78.68-31.42,4.01-6.11,12.87-14.84,3.66-21.2-7.51-5.18-18.43-4.05-25.83,4.55-2.89,3.36-5.54,6.99-8.79,9.97-29.6,27.09-74.42,14.26-84.82-23.76-2.79-10.22-.69-14.25,10.01-14.08,17.14,.27,34.29,.07,51.43,.07v-.11c17.14,0,34.29-.04,51.43,.02,8.53,.03,14.16-2.07,15.31-12.38,4.48-39.84-22.15-76.66-62.43-85.21Zm16,73.09c-11.26-1.06-22.7-.2-34.05-.2-12.62-.03-25.24-.16-37.86,.02-8.65,.12-12.83-1.94-10.29-12.19,5.43-21.98,24.09-37.66,47.85-38.68,18.55-.8,40.04,14.54,46.48,32.99,4.02,11.52,4.23,19.59-12.12,18.05Z" style="fill:url(#b);"/><path d="M483.15,1407.07c.37-11.95-6.38-17.45-18.11-16.3-47.06,4.61-82.27-14.71-108.54-52.78-8.47-12.27-18.14-13.46-27.21-.59-26.42,37.52-60.97,58.27-108.3,53.35-13.23-1.37-18.34,5.07-18.09,17.86,.39,20.27,.1,40.54,.09,60.82-.02,12.04-.03,24.07-.02,36.11,.05,76.7,45.41,138.75,119.03,162.67,10.33,3.36,20.71,4.66,31.75,2.49,56.77-11.15,115.9-70.52,125.8-127.14,7.92-45.29,2.21-90.99,3.61-136.48Zm-24.64,24.16c-.69,13.91-.17,27.89-.17,41.84-.19,0-.38,0-.57,0,0,15.84,1.28,31.81-.22,47.51-6,62.78-44.51,99.71-99.97,122.56-9.84,4.05-19.69,3.54-29.74,.15-61.89-20.92-99.66-72.94-99.78-137.79-.05-25.36,.24-50.72-.12-76.08-.13-9.24,2.23-13.94,12.69-13.86,37.19,.28,67.76-15.37,92.23-42.23,8.97-9.85,12.45-6.87,20.04,.99,24.64,25.56,54.38,41.6,90.86,41.14,12.2-.15,15.29,4.72,14.74,15.77Zm-75.69,136.81c.19,4.59-1.57,8.42-7.17,10.1-1.33,.4-2.69,.67-4.06,.91-5.9,1.01-11.81,1.99-14.18,2.39h0c-32.29,.33-52.21-17.62-53.01-46.66-.95-34.64-.17-69.33-.43-103.99-.06-8.25,3.5-14.24,11.45-11.58,7.39,2.48,11.28,3.27,11.75,11.43,1.45,25.1,1.73,24.65,26.42,25.39,7.84,.23,21.33-5.49,20.58,10.13-.68,14.25-13.42,8.11-20.8,8.34-29.97,.93-25.95-2.04-26.29,26.05-.1,8.32-.05,16.64,0,24.96,.2,32.47,11.67,41.71,44.23,35.87,3.79-.68,6.68-6.92,10.18,1.07,.78,1.77,1.25,3.67,1.33,5.6Z" style="fill:url(#c);"/></svg>